<svg xmlns="http://www.w3.org/2000/svg" version="1.1" xmlns:xlink="http://www.w3.org/1999/xlink" xmlns:svgjs="http://svgjs.dev/svgjs" width="512" height="512"><svg width="512" height="512" viewBox="0 0 512 512" fill="none" xmlns="http://www.w3.org/2000/svg">
<path d="M138.434 356C122.05 356 107.379 353.309 94.4189 347.927C81.7035 342.544 70.9444 335.205 62.1415 325.908C53.3385 316.612 46.6141 305.969 41.9681 293.982C38.9307 285.709 36.9413 277.145 36 268.29C52.1595 287.74 85.824 312.81 137.657 312.81C176.873 312.81 234.532 293.982 234.532 293.982C234.532 293.982 223.162 316.612 214.359 325.908C205.556 335.205 194.797 342.544 182.081 347.927C169.366 353.309 154.817 356 138.434 356Z" fill="#222222"></path>
<path d="M240.674 242.536C223.702 223.39 189.765 199.896 137.657 199.896C96.6468 199.896 41.9681 218.018 41.9681 218.018C41.9681 218.018 53.3385 195.388 62.1415 186.092C70.9444 176.795 81.7035 169.456 94.4189 164.073C107.379 158.691 122.05 156 138.434 156C154.817 156 169.366 158.691 182.081 164.073C194.797 169.456 205.556 176.795 214.359 186.092C223.162 195.388 229.886 206.031 234.532 218.018C237.577 225.875 239.625 234.048 240.674 242.536Z" fill="#222222"></path>
<path d="M329.575 347.927C342.535 353.309 357.206 356 373.589 356C389.973 356 404.522 353.309 417.237 347.927C429.953 342.544 440.712 335.205 449.515 325.908C458.318 316.612 465.042 305.969 469.688 293.982C472.907 285.675 475.011 277.075 476 268.181C458.823 287.645 423.769 312.81 371.838 312.81C332.397 312.81 277.124 293.982 277.124 293.982C277.124 293.982 288.494 316.612 297.297 325.908C306.1 335.205 316.859 342.544 329.575 347.927Z" fill="#222222"></path>
<path d="M371.838 199.896C412.551 199.896 469.688 218.018 469.688 218.018C469.688 218.018 458.318 195.388 449.515 186.092C440.712 176.795 429.953 169.456 417.237 164.073C404.522 158.691 389.973 156 373.589 156C357.206 156 342.535 158.691 329.575 164.073C316.859 169.456 306.1 176.795 297.297 186.092C288.494 195.388 281.77 206.031 277.124 218.018C274.267 225.799 272.338 233.888 271.335 242.287C287.347 223.188 319.956 199.896 371.838 199.896Z" fill="#222222"></path>
<path d="M101.021 282.606C97.3531 275.022 95.5192 266.214 95.5192 256.184C95.5192 246.153 97.3531 237.346 101.021 229.762C104.933 222.178 110.069 216.306 116.426 212.147C122.784 207.988 130.12 205.908 138.434 205.908C146.503 205.908 153.716 207.988 160.074 212.147C166.676 216.306 171.811 222.178 175.479 229.762C179.147 237.346 180.981 246.153 180.981 256.184C180.981 265.97 179.147 274.655 175.479 282.239C171.811 289.823 166.676 295.817 160.074 300.22C153.716 304.379 146.503 306.459 138.434 306.459C130.12 306.459 122.784 304.379 116.426 300.22C110.069 296.061 104.933 290.19 101.021 282.606Z" fill="#222222"></path>
<path d="M330.675 256.184C330.675 266.214 332.509 275.022 336.177 282.606C340.089 290.19 345.225 296.061 351.582 300.22C357.94 304.379 365.276 306.459 373.589 306.459C381.659 306.459 388.872 304.379 395.23 300.22C401.832 295.817 406.967 289.823 410.635 282.239C414.303 274.655 416.137 265.97 416.137 256.184C416.137 246.153 414.303 237.346 410.635 229.762C406.967 222.178 401.832 216.306 395.23 212.147C388.872 207.988 381.659 205.908 373.589 205.908C365.276 205.908 357.94 207.988 351.582 212.147C345.225 216.306 340.089 222.178 336.177 229.762C332.509 237.346 330.675 246.153 330.675 256.184Z" fill="#222222"></path>
</svg><style>@media (prefers-color-scheme: light) { :root { filter: none; } }
@media (prefers-color-scheme: dark) { :root { filter: invert(100%); } }
</style></svg>