<svg width="403" height="62" viewBox="0 0 403 62" fill="none" xmlns="http://www.w3.org/2000/svg">
<path d="M69.061 47.65H79.461V25.81C79.461 24.3367 79.331 22.8417 79.071 21.325C78.811 19.8083 78.3126 18.4217 77.576 17.165C76.8393 15.865 75.756 14.825 74.326 14.045C72.9393 13.265 71.076 12.875 68.736 12.875C66.266 12.875 63.991 13.4383 61.911 14.565C59.8743 15.6483 58.2276 17.2083 56.971 19.245V0.200012H46.571V47.65H56.971V28.085C57.4043 26.8717 58.0326 25.81 58.856 24.9C59.6793 23.99 60.5676 23.2967 61.521 22.82C62.5176 22.3 63.406 22.04 64.186 22.04C65.6593 22.04 66.8293 22.56 67.696 23.6C68.606 24.64 69.061 26.265 69.061 28.475V47.65Z" fill="#222222"/>
<path d="M1.56 15.93C0.52 18.6167 0 21.3683 0 24.185C0 27.1317 0.541667 30.035 1.625 32.895C2.75167 35.7117 4.31167 38.2683 6.305 40.565C8.34167 42.8183 10.7467 44.6383 13.52 46.025C16.3367 47.3683 19.4133 48.04 22.75 48.04C25.3067 48.04 27.885 47.6283 30.485 46.805C33.1283 45.9383 35.49 44.7033 37.57 43.1C39.65 41.4967 41.145 39.5683 42.055 37.315L33.345 32.18C32.7383 33.6967 31.85 34.9317 30.68 35.885C29.5533 36.795 28.3183 37.4667 26.975 37.9C25.6317 38.3333 24.31 38.55 23.01 38.55C21.19 38.55 19.5217 38.1817 18.005 37.445C16.4883 36.665 15.1883 35.625 14.105 34.325C13.065 33.025 12.2633 31.53 11.7 29.84C11.1367 28.15 10.855 26.395 10.855 24.575C10.855 22.9283 11.0933 21.2817 11.57 19.635C12.0467 17.9883 12.7833 16.4933 13.78 15.15C14.7767 13.8067 16.0333 12.745 17.55 11.965C19.0667 11.1417 20.8433 10.73 22.88 10.73C24.1367 10.73 25.4367 10.925 26.78 11.315C28.1667 11.6617 29.4233 12.29 30.55 13.2C31.72 14.11 32.6517 15.3883 33.345 17.035L41.535 11.315C39.975 8.32501 37.5917 5.89835 34.385 4.03501C31.2217 2.17168 27.4733 1.24001 23.14 1.24001C19.5 1.24001 16.25 1.91168 13.39 3.25501C10.53 4.55501 8.10333 6.31001 6.11 8.52001C4.11667 10.73 2.6 13.2 1.56 15.93Z" fill="#222222"/>
<path d="M102.621 48.3C99.7174 48.3 97.1175 47.8233 94.8208 46.87C92.5675 45.9167 90.6608 44.6167 89.1008 42.97C87.5408 41.3233 86.3491 39.4383 85.5258 37.315C84.9875 35.8497 84.635 34.3329 84.4682 32.7644C87.3318 36.2094 93.2977 40.65 102.483 40.65C111.49 40.65 117.632 36.3805 120.743 32.9666C120.559 34.4633 120.195 35.9128 119.651 37.315C118.827 39.4383 117.636 41.3233 116.076 42.97C114.516 44.6167 112.609 45.9167 110.356 46.87C108.102 47.8233 105.524 48.3 102.621 48.3Z" fill="#222222"/>
<path d="M120.739 28.2026C117.732 24.8115 111.717 20.65 102.483 20.65C93.0669 20.65 87.2331 24.9773 84.4723 28.4024C84.6408 26.8274 84.992 25.3132 85.5258 23.86C86.3491 21.7367 87.5408 19.8517 89.1008 18.205C90.6608 16.5583 92.5675 15.2583 94.8208 14.305C97.1175 13.3517 99.7174 12.875 102.621 12.875C105.524 12.875 108.102 13.3517 110.356 14.305C112.609 15.2583 114.516 16.5583 116.076 18.205C117.636 19.8517 118.827 21.7367 119.651 23.86C120.19 25.2517 120.553 26.6992 120.739 28.2026Z" fill="#222222"/>
<path d="M136.494 46.87C138.79 47.8233 141.39 48.3 144.294 48.3C147.197 48.3 149.775 47.8233 152.029 46.87C154.282 45.9167 156.189 44.6167 157.749 42.97C159.309 41.3233 160.5 39.4383 161.324 37.315C161.894 35.8437 162.267 34.3204 162.442 32.745C159.398 36.1927 153.186 40.65 143.983 40.65C135.006 40.65 129.104 36.4082 126.168 33C126.344 34.4849 126.687 35.9232 127.199 37.315C128.022 39.4383 129.214 41.3233 130.774 42.97C132.334 44.6167 134.24 45.9167 136.494 46.87Z" fill="#222222"/>
<path d="M143.983 20.65C153.427 20.65 159.502 25.0022 162.439 28.4319C162.262 26.8463 161.891 25.3223 161.324 23.86C160.5 21.7367 159.309 19.8517 157.749 18.205C156.189 16.5583 154.282 15.2583 152.029 14.305C149.775 13.3517 147.197 12.875 144.294 12.875C141.39 12.875 138.79 13.3517 136.494 14.305C134.24 15.2583 132.334 16.5583 130.774 18.205C129.214 19.8517 128.022 21.7367 127.199 23.86C126.692 25.2381 126.35 26.671 126.173 28.1586C129.01 24.7756 134.789 20.65 143.983 20.65Z" fill="#222222"/>
<path d="M180.781 48.3C177.878 48.3 175.04 47.8233 172.266 46.87C169.493 45.9167 167.153 44.5083 165.246 42.645L168.821 36.08C170.901 37.5967 172.916 38.745 174.866 39.525C176.86 40.305 178.723 40.695 180.456 40.695C181.8 40.695 182.84 40.4783 183.576 40.045C184.313 39.6117 184.681 38.94 184.681 38.03C184.681 37.38 184.465 36.8817 184.031 36.535C183.598 36.145 182.926 35.7983 182.016 35.495C181.15 35.1917 180.066 34.8667 178.766 34.52C176.166 33.6533 174 32.8083 172.266 31.985C170.533 31.1617 169.233 30.165 168.366 28.995C167.5 27.7817 167.066 26.2217 167.066 24.315C167.066 22.0183 167.63 20.025 168.756 18.335C169.926 16.6017 171.573 15.2583 173.696 14.305C175.82 13.3517 178.355 12.875 181.301 12.875C183.641 12.875 185.916 13.2433 188.126 13.98C190.38 14.7167 192.481 15.9517 194.431 17.685L190.401 24.185C188.451 22.8417 186.718 21.8667 185.201 21.26C183.685 20.6533 182.211 20.35 180.781 20.35C180.045 20.35 179.373 20.4367 178.766 20.61C178.16 20.7833 177.661 21.0867 177.271 21.52C176.925 21.91 176.751 22.43 176.751 23.08C176.751 23.73 176.925 24.25 177.271 24.64C177.661 25.03 178.246 25.3767 179.026 25.68C179.85 25.94 180.868 26.265 182.081 26.655C184.898 27.4783 187.238 28.3233 189.101 29.19C190.965 30.0133 192.351 31.0533 193.261 32.31C194.215 33.5233 194.691 35.1483 194.691 37.185C194.691 40.6517 193.435 43.3817 190.921 45.375C188.451 47.325 185.071 48.3 180.781 48.3Z" fill="#222222"/>
<path d="M200.026 13.525V47.65H210.426V13.525H200.026Z" fill="#222222"/>
<path d="M200.026 0.200012V9.62501H210.426V0.200012H200.026Z" fill="#222222"/>
<path fill-rule="evenodd" clip-rule="evenodd" d="M233.861 48.3C230.957 48.3 228.379 47.845 226.126 46.935C223.872 45.9817 221.944 44.7033 220.341 43.1C218.781 41.4967 217.589 39.655 216.766 37.575C215.942 35.4517 215.531 33.2417 215.531 30.945C215.531 27.6517 216.246 24.6617 217.676 21.975C219.149 19.245 221.251 17.0567 223.981 15.41C226.711 13.72 230.004 12.875 233.861 12.875C237.717 12.875 240.989 13.6983 243.676 15.345C246.406 16.9917 248.486 19.1583 249.916 21.845C251.346 24.4883 252.061 27.37 252.061 30.49C252.061 31.0967 252.017 31.7033 251.931 32.31C251.887 32.8733 251.844 33.3717 251.801 33.805H226.581C226.711 35.3217 227.122 36.6 227.816 37.64C228.552 38.68 229.484 39.4817 230.611 40.045C231.737 40.565 232.929 40.825 234.186 40.825C235.746 40.825 237.197 40.4567 238.541 39.72C239.927 38.9833 240.881 37.9867 241.401 36.73L250.241 39.2C249.374 40.9767 248.139 42.5583 246.536 43.945C244.976 45.2883 243.112 46.35 240.946 47.13C238.822 47.91 236.461 48.3 233.861 48.3ZM226.321 27.435H241.141C240.967 26.005 240.556 24.77 239.906 23.73C239.256 22.6467 238.389 21.8233 237.306 21.26C236.222 20.6533 235.031 20.35 233.731 20.35C232.387 20.35 231.174 20.6533 230.091 21.26C229.051 21.8233 228.206 22.6467 227.556 23.73C226.906 24.77 226.494 26.005 226.321 27.435Z" fill="#222222"/>
<path d="M271.594 23.665C273.631 22.8417 275.906 22.43 278.419 22.43V13.07C278.246 13.0267 278.029 13.005 277.769 13.005H276.729C274.692 13.0483 272.742 13.72 270.879 15.02C269.016 16.32 267.499 18.1183 266.329 20.415V13.525H256.774V47.65H267.174V27.175C268.084 25.615 269.557 24.445 271.594 23.665Z" fill="#222222"/>
<path d="M278.419 47.535V36.94H286.934V47.535H278.419Z" fill="#222222"/>
<path fill-rule="evenodd" clip-rule="evenodd" d="M294.556 32.52C293.342 33.9934 292.736 35.7484 292.736 37.785C292.736 39.735 293.212 41.5117 294.166 43.115C295.163 44.675 296.506 45.91 298.196 46.82C299.929 47.73 301.858 48.185 303.981 48.185C306.668 48.185 309.224 47.6434 311.651 46.56C314.121 45.4767 316.136 43.96 317.696 42.01V44.675C317.739 45.3684 317.978 45.9967 318.411 46.56C318.888 47.1234 319.538 47.47 320.361 47.6H321.011C321.271 47.6 321.596 47.5784 321.986 47.535V44.87C321.509 44.8267 321.141 44.675 320.881 44.415C320.664 44.155 320.556 43.765 320.556 43.245V26.475C320.556 22.3584 319.386 19.1084 317.046 16.725C314.706 14.3417 311.521 13.15 307.491 13.15C305.454 13.15 303.396 13.54 301.316 14.32C299.279 15.0567 297.156 16.1617 294.946 17.635L296.311 19.975C298.218 18.675 300.081 17.6784 301.901 16.985C303.721 16.2917 305.476 15.945 307.166 15.945C310.329 15.945 312.799 16.8767 314.576 18.74C316.396 20.6034 317.306 23.095 317.306 26.215V29.4C315.833 28.88 314.164 28.4684 312.301 28.165C310.438 27.8617 308.639 27.71 306.906 27.71C304.133 27.71 301.684 28.1434 299.561 29.01C297.438 29.8334 295.769 31.0034 294.556 32.52ZM316.981 38.955C316.764 39.475 316.439 40.0167 316.006 40.58C314.966 42.0534 313.406 43.2667 311.326 44.22C309.289 45.13 307.058 45.585 304.631 45.585C302.898 45.585 301.359 45.2167 300.016 44.48C298.716 43.7434 297.698 42.7684 296.961 41.555C296.224 40.3417 295.856 39.02 295.856 37.59C295.856 35.2934 296.896 33.4734 298.976 32.13C301.099 30.7867 303.851 30.115 307.231 30.115C309.008 30.115 310.741 30.2667 312.431 30.57C314.121 30.8734 315.746 31.3284 317.306 31.935V37.525C317.306 37.9584 317.198 38.435 316.981 38.955Z" fill="#222222"/>
<path fill-rule="evenodd" clip-rule="evenodd" d="M346.953 48.185C344.05 48.185 341.45 47.4267 339.153 45.91C336.9 44.35 335.08 42.465 333.693 40.255V61.38H330.443V13.735H333.433V20.495C334.82 18.3284 336.661 16.5734 338.958 15.23C341.255 13.8434 343.681 13.15 346.238 13.15C348.621 13.15 350.788 13.6484 352.738 14.645C354.688 15.5984 356.378 16.92 357.808 18.61C359.281 20.2567 360.408 22.12 361.188 24.2C362.011 26.28 362.423 28.4467 362.423 30.7C362.423 33.82 361.773 36.7234 360.473 39.41C359.173 42.0534 357.353 44.1767 355.013 45.78C352.716 47.3834 350.03 48.185 346.953 48.185ZM346.173 45.26C348.166 45.26 349.943 44.8484 351.503 44.025C353.106 43.2017 354.471 42.0967 355.598 40.71C356.725 39.3234 357.591 37.7634 358.198 36.03C358.805 34.2967 359.108 32.52 359.108 30.7C359.108 28.75 358.761 26.9084 358.068 25.175C357.375 23.3984 356.4 21.8384 355.143 20.495C353.93 19.1517 352.5 18.09 350.853 17.31C349.25 16.4867 347.495 16.075 345.588 16.075C344.418 16.075 343.161 16.3134 341.818 16.79C340.518 17.2667 339.261 17.9384 338.048 18.805C336.878 19.6717 335.903 20.6684 335.123 21.795C334.343 22.8784 333.866 24.005 333.693 25.175V36.29C334.473 37.9367 335.47 39.4534 336.683 40.84C337.94 42.1834 339.391 43.2667 341.038 44.09C342.685 44.87 344.396 45.26 346.173 45.26Z" fill="#222222"/>
<path fill-rule="evenodd" clip-rule="evenodd" d="M378.953 45.91C381.249 47.4267 383.849 48.185 386.753 48.185C389.829 48.185 392.516 47.3834 394.813 45.78C397.153 44.1767 398.973 42.0534 400.273 39.41C401.573 36.7234 402.223 33.82 402.223 30.7C402.223 28.4467 401.811 26.28 400.988 24.2C400.208 22.12 399.081 20.2567 397.608 18.61C396.178 16.92 394.488 15.5984 392.538 14.645C390.588 13.6484 388.421 13.15 386.038 13.15C383.481 13.15 381.054 13.8434 378.758 15.23C376.461 16.5734 374.619 18.3284 373.233 20.495V13.735H370.243V61.38H373.493V40.255C374.879 42.465 376.699 44.35 378.953 45.91ZM391.303 44.025C389.743 44.8484 387.966 45.26 385.973 45.26C384.196 45.26 382.484 44.87 380.838 44.09C379.191 43.2667 377.739 42.1834 376.483 40.84C375.269 39.4534 374.273 37.9367 373.493 36.29V25.175C373.666 24.005 374.143 22.8784 374.923 21.795C375.703 20.6684 376.678 19.6717 377.848 18.805C379.061 17.9384 380.318 17.2667 381.618 16.79C382.961 16.3134 384.218 16.075 385.388 16.075C387.294 16.075 389.049 16.4867 390.653 17.31C392.299 18.09 393.729 19.1517 394.943 20.495C396.199 21.8384 397.174 23.3984 397.868 25.175C398.561 26.9084 398.908 28.75 398.908 30.7C398.908 32.52 398.604 34.2967 397.998 36.03C397.391 37.7634 396.524 39.3234 395.398 40.71C394.271 42.0967 392.906 43.2017 391.303 44.025Z" fill="#222222"/>
<path d="M95.9908 35.3C95.3408 33.9567 95.0158 32.3967 95.0158 30.62C95.0158 28.8434 95.3408 27.2834 95.9908 25.94C96.6841 24.5967 97.5941 23.5567 98.7208 22.82C99.8475 22.0834 101.147 21.715 102.621 21.715C104.051 21.715 105.329 22.0834 106.456 22.82C107.626 23.5567 108.536 24.5967 109.186 25.94C109.836 27.2834 110.161 28.8434 110.161 30.62C110.161 32.3534 109.836 33.8917 109.186 35.235C108.536 36.5784 107.626 37.64 106.456 38.42C105.329 39.1567 104.051 39.525 102.621 39.525C101.147 39.525 99.8475 39.1567 98.7208 38.42C97.5941 37.6834 96.6841 36.6434 95.9908 35.3Z" fill="#222222"/>
<path d="M136.689 30.62C136.689 32.3967 137.014 33.9567 137.664 35.3C138.357 36.6434 139.267 37.6834 140.394 38.42C141.52 39.1567 142.82 39.525 144.294 39.525C145.724 39.525 147.002 39.1567 148.129 38.42C149.299 37.64 150.209 36.5784 150.859 35.235C151.509 33.8917 151.834 32.3534 151.834 30.62C151.834 28.8434 151.509 27.2834 150.859 25.94C150.209 24.5967 149.299 23.5567 148.129 22.82C147.002 22.0834 145.724 21.715 144.294 21.715C142.82 21.715 141.52 22.0834 140.394 22.82C139.267 23.5567 138.357 24.5967 137.664 25.94C137.014 27.2834 136.689 28.8434 136.689 30.62Z" fill="#222222"/>
</svg>
