<svg width="412" height="49" viewBox="0 0 412 49" fill="#222" xmlns="http://www.w3.org/2000/svg">
<path d="M69.061 47.65H79.461V25.81C79.461 24.3367 79.331 22.8417 79.071 21.325C78.811 19.8083 78.3126 18.4217 77.576 17.165C76.8393 15.865 75.756 14.825 74.326 14.045C72.9393 13.265 71.076 12.875 68.736 12.875C66.266 12.875 63.991 13.4383 61.911 14.565C59.8743 15.6483 58.2276 17.2083 56.971 19.245V0.200012H46.571V47.65H56.971V28.085C57.4043 26.8717 58.0326 25.81 58.856 24.9C59.6793 23.99 60.5676 23.2967 61.521 22.82C62.5176 22.3 63.406 22.04 64.186 22.04C65.6593 22.04 66.8293 22.56 67.696 23.6C68.606 24.64 69.061 26.265 69.061 28.475V47.65Z"/>
<path d="M1.56 15.93C0.52 18.6167 0 21.3683 0 24.185C0 27.1317 0.541667 30.035 1.625 32.895C2.75167 35.7117 4.31167 38.2683 6.305 40.565C8.34167 42.8183 10.7467 44.6383 13.52 46.025C16.3367 47.3683 19.4133 48.04 22.75 48.04C25.3067 48.04 27.885 47.6283 30.485 46.805C33.1283 45.9383 35.49 44.7033 37.57 43.1C39.65 41.4967 41.145 39.5683 42.055 37.315L33.345 32.18C32.7383 33.6967 31.85 34.9317 30.68 35.885C29.5533 36.795 28.3183 37.4667 26.975 37.9C25.6317 38.3333 24.31 38.55 23.01 38.55C21.19 38.55 19.5217 38.1817 18.005 37.445C16.4883 36.665 15.1883 35.625 14.105 34.325C13.065 33.025 12.2633 31.53 11.7 29.84C11.1367 28.15 10.855 26.395 10.855 24.575C10.855 22.9283 11.0933 21.2817 11.57 19.635C12.0467 17.9883 12.7833 16.4933 13.78 15.15C14.7767 13.8067 16.0333 12.745 17.55 11.965C19.0667 11.1417 20.8433 10.73 22.88 10.73C24.1367 10.73 25.4367 10.925 26.78 11.315C28.1667 11.6617 29.4233 12.29 30.55 13.2C31.72 14.11 32.6517 15.3883 33.345 17.035L41.535 11.315C39.975 8.32501 37.5917 5.89835 34.385 4.03501C31.2217 2.17168 27.4733 1.24001 23.14 1.24001C19.5 1.24001 16.25 1.91168 13.39 3.25501C10.53 4.55501 8.10333 6.31001 6.11 8.52001C4.11667 10.73 2.6 13.2 1.56 15.93Z"/>
<path d="M102.621 48.3C99.7174 48.3 97.1175 47.8233 94.8208 46.87C92.5675 45.9167 90.6608 44.6167 89.1008 42.97C87.5408 41.3233 86.3491 39.4383 85.5258 37.315C84.9875 35.8497 84.635 34.3329 84.4682 32.7644C87.3318 36.2094 93.2977 40.65 102.483 40.65C111.49 40.65 117.632 36.3805 120.743 32.9666C120.559 34.4633 120.195 35.9128 119.651 37.315C118.827 39.4383 117.636 41.3233 116.076 42.97C114.516 44.6167 112.609 45.9167 110.356 46.87C108.102 47.8233 105.524 48.3 102.621 48.3Z"/>
<path d="M120.739 28.2026C117.732 24.8115 111.717 20.65 102.483 20.65C93.0669 20.65 87.2331 24.9773 84.4723 28.4024C84.6408 26.8274 84.992 25.3132 85.5258 23.86C86.3491 21.7367 87.5408 19.8517 89.1008 18.205C90.6608 16.5583 92.5675 15.2583 94.8208 14.305C97.1175 13.3517 99.7174 12.875 102.621 12.875C105.524 12.875 108.102 13.3517 110.356 14.305C112.609 15.2583 114.516 16.5583 116.076 18.205C117.636 19.8517 118.827 21.7367 119.651 23.86C120.19 25.2517 120.553 26.6992 120.739 28.2026Z"/>
<path d="M136.494 46.87C138.79 47.8233 141.39 48.3 144.294 48.3C147.197 48.3 149.775 47.8233 152.029 46.87C154.282 45.9167 156.189 44.6167 157.749 42.97C159.309 41.3233 160.5 39.4383 161.324 37.315C161.894 35.8437 162.267 34.3204 162.442 32.745C159.398 36.1927 153.186 40.65 143.983 40.65C135.006 40.65 129.104 36.4082 126.168 33C126.344 34.4849 126.687 35.9232 127.199 37.315C128.022 39.4383 129.214 41.3233 130.774 42.97C132.334 44.6167 134.24 45.9167 136.494 46.87Z"/>
<path d="M143.983 20.65C153.427 20.65 159.502 25.0022 162.439 28.4319C162.262 26.8463 161.891 25.3223 161.324 23.86C160.5 21.7367 159.309 19.8517 157.749 18.205C156.189 16.5583 154.282 15.2583 152.029 14.305C149.775 13.3517 147.197 12.875 144.294 12.875C141.39 12.875 138.79 13.3517 136.494 14.305C134.24 15.2583 132.334 16.5583 130.774 18.205C129.214 19.8517 128.022 21.7367 127.199 23.86C126.692 25.2381 126.35 26.671 126.173 28.1586C129.01 24.7756 134.789 20.65 143.983 20.65Z"/>
<path d="M180.781 48.3C177.878 48.3 175.04 47.8233 172.266 46.87C169.493 45.9167 167.153 44.5083 165.246 42.645L168.821 36.08C170.901 37.5967 172.916 38.745 174.866 39.525C176.86 40.305 178.723 40.695 180.456 40.695C181.8 40.695 182.84 40.4783 183.576 40.045C184.313 39.6117 184.681 38.94 184.681 38.03C184.681 37.38 184.465 36.8817 184.031 36.535C183.598 36.145 182.926 35.7983 182.016 35.495C181.15 35.1917 180.066 34.8667 178.766 34.52C176.166 33.6533 174 32.8083 172.266 31.985C170.533 31.1617 169.233 30.165 168.366 28.995C167.5 27.7817 167.066 26.2217 167.066 24.315C167.066 22.0183 167.63 20.025 168.756 18.335C169.926 16.6017 171.573 15.2583 173.696 14.305C175.82 13.3517 178.355 12.875 181.301 12.875C183.641 12.875 185.916 13.2433 188.126 13.98C190.38 14.7167 192.481 15.9517 194.431 17.685L190.401 24.185C188.451 22.8417 186.718 21.8667 185.201 21.26C183.685 20.6533 182.211 20.35 180.781 20.35C180.045 20.35 179.373 20.4367 178.766 20.61C178.16 20.7833 177.661 21.0867 177.271 21.52C176.925 21.91 176.751 22.43 176.751 23.08C176.751 23.73 176.925 24.25 177.271 24.64C177.661 25.03 178.246 25.3767 179.026 25.68C179.85 25.94 180.868 26.265 182.081 26.655C184.898 27.4783 187.238 28.3233 189.101 29.19C190.965 30.0133 192.351 31.0533 193.261 32.31C194.215 33.5233 194.691 35.1483 194.691 37.185C194.691 40.6517 193.435 43.3817 190.921 45.375C188.451 47.325 185.071 48.3 180.781 48.3Z"/>
<path d="M200.026 13.525V47.65H210.426V13.525H200.026Z"/>
<path d="M200.026 0.200012V9.62501H210.426V0.200012H200.026Z"/>
<path fill-rule="evenodd" clip-rule="evenodd" d="M233.861 48.3C230.957 48.3 228.379 47.845 226.126 46.935C223.872 45.9817 221.944 44.7033 220.341 43.1C218.781 41.4967 217.589 39.655 216.766 37.575C215.942 35.4517 215.531 33.2417 215.531 30.945C215.531 27.6517 216.246 24.6617 217.676 21.975C219.149 19.245 221.251 17.0567 223.981 15.41C226.711 13.72 230.004 12.875 233.861 12.875C237.717 12.875 240.989 13.6983 243.676 15.345C246.406 16.9917 248.486 19.1583 249.916 21.845C251.346 24.4883 252.061 27.37 252.061 30.49C252.061 31.0967 252.017 31.7033 251.931 32.31C251.887 32.8733 251.844 33.3717 251.801 33.805H226.581C226.711 35.3217 227.122 36.6 227.816 37.64C228.552 38.68 229.484 39.4817 230.611 40.045C231.737 40.565 232.929 40.825 234.186 40.825C235.746 40.825 237.197 40.4567 238.541 39.72C239.927 38.9833 240.881 37.9867 241.401 36.73L250.241 39.2C249.374 40.9767 248.139 42.5583 246.536 43.945C244.976 45.2883 243.112 46.35 240.946 47.13C238.822 47.91 236.461 48.3 233.861 48.3ZM226.321 27.435H241.141C240.967 26.005 240.556 24.77 239.906 23.73C239.256 22.6467 238.389 21.8233 237.306 21.26C236.222 20.6533 235.031 20.35 233.731 20.35C232.387 20.35 231.174 20.6533 230.091 21.26C229.051 21.8233 228.206 22.6467 227.556 23.73C226.906 24.77 226.494 26.005 226.321 27.435Z"/>
<path d="M271.594 23.665C273.631 22.8417 275.906 22.43 278.419 22.43V13.07C278.246 13.0267 278.029 13.005 277.769 13.005H276.729C274.692 13.0483 272.742 13.72 270.879 15.02C269.016 16.32 267.499 18.1183 266.329 20.415V13.525H256.774V47.65H267.174V27.175C268.084 25.615 269.557 24.445 271.594 23.665Z"/>
<path d="M278.419 47.535V36.94H286.934V47.535H278.419Z"/>
<path d="M95.9908 35.3C95.3408 33.9567 95.0158 32.3967 95.0158 30.62C95.0158 28.8434 95.3408 27.2834 95.9908 25.94C96.6841 24.5967 97.5941 23.5567 98.7208 22.82C99.8475 22.0834 101.147 21.715 102.621 21.715C104.051 21.715 105.329 22.0834 106.456 22.82C107.626 23.5567 108.536 24.5967 109.186 25.94C109.836 27.2834 110.161 28.8434 110.161 30.62C110.161 32.3534 109.836 33.8917 109.186 35.235C108.536 36.5784 107.626 37.64 106.456 38.42C105.329 39.1567 104.051 39.525 102.621 39.525C101.147 39.525 99.8475 39.1567 98.7208 38.42C97.5941 37.6834 96.6841 36.6434 95.9908 35.3Z"/>
<path d="M136.689 30.62C136.689 32.3967 137.014 33.9567 137.664 35.3C138.357 36.6434 139.267 37.6834 140.394 38.42C141.52 39.1567 142.82 39.525 144.294 39.525C145.724 39.525 147.002 39.1567 148.129 38.42C149.299 37.64 150.209 36.5784 150.859 35.235C151.509 33.8917 151.834 32.3534 151.834 30.62C151.834 28.8434 151.509 27.2834 150.859 25.94C150.209 24.5967 149.299 23.5567 148.129 22.82C147.002 22.0834 145.724 21.715 144.294 21.715C142.82 21.715 141.52 22.0834 140.394 22.82C139.267 23.5567 138.357 24.5967 137.664 25.94C137.014 27.2834 136.689 28.8434 136.689 30.62Z"/>
<path d="M411.569 47.385H408.319V28.535C408.319 24.245 407.648 21.0817 406.304 19.045C405.004 17.0083 402.989 15.99 400.259 15.99C397.486 15.99 395.016 16.9867 392.849 18.98C390.726 20.93 389.231 23.4433 388.364 26.52V47.385H385.114V28.535C385.114 24.2017 384.464 21.0383 383.164 19.045C381.864 17.0083 379.849 15.99 377.119 15.99C374.346 15.99 371.876 16.965 369.709 18.915C367.586 20.8217 366.069 23.335 365.159 26.455V47.385H361.909V13.585H364.964V21.645C366.394 18.8717 368.236 16.7483 370.489 15.275C372.743 13.7583 375.213 13 377.899 13C380.716 13 383.013 13.845 384.789 15.535C386.609 17.1817 387.693 19.3917 388.039 22.165C389.643 19.1317 391.549 16.8567 393.759 15.34C395.969 13.78 398.483 13 401.299 13C403.163 13 404.723 13.3467 405.979 14.04C407.279 14.69 408.341 15.665 409.164 16.965C410.031 18.2217 410.638 19.7817 410.984 21.645C411.374 23.5083 411.569 25.61 411.569 27.95V47.385Z"/>
<path d="M340.613 48.035C338.229 48.035 336.019 47.58 333.983 46.67C331.989 45.76 330.256 44.5033 328.783 42.9C327.309 41.2533 326.161 39.3683 325.338 37.245C324.514 35.1217 324.103 32.89 324.103 30.55C324.103 28.1667 324.514 25.935 325.338 23.855C326.161 21.7317 327.309 19.8683 328.783 18.265C330.299 16.6183 332.054 15.34 334.048 14.43C336.084 13.4767 338.273 13 340.613 13C342.953 13 345.119 13.4767 347.113 14.43C349.106 15.34 350.861 16.6183 352.378 18.265C353.894 19.8683 355.064 21.7317 355.888 23.855C356.711 25.935 357.123 28.1667 357.123 30.55C357.123 32.89 356.711 35.1217 355.888 37.245C355.064 39.3683 353.894 41.2533 352.378 42.9C350.904 44.5033 349.149 45.76 347.113 46.67C345.119 47.58 342.953 48.035 340.613 48.035ZM327.353 30.68C327.353 33.3233 327.938 35.75 329.108 37.96C330.321 40.1267 331.924 41.86 333.918 43.16C335.911 44.46 338.121 45.11 340.548 45.11C342.974 45.11 345.184 44.46 347.178 43.16C349.214 41.8167 350.818 40.04 351.988 37.83C353.201 35.5767 353.808 33.1283 353.808 30.485C353.808 27.8417 353.201 25.415 351.988 23.205C350.818 20.995 349.214 19.24 347.178 17.94C345.184 16.5967 342.996 15.925 340.613 15.925C338.186 15.925 335.976 16.5967 333.983 17.94C331.989 19.2833 330.386 21.06 329.173 23.27C327.959 25.48 327.353 27.95 327.353 30.68Z"/>
<path d="M306.705 48.035C304.365 48.035 302.177 47.58 300.14 46.67C298.103 45.7167 296.327 44.4383 294.81 42.835C293.293 41.1883 292.102 39.3033 291.235 37.18C290.412 35.0567 290 32.7817 290 30.355C290 27.105 290.715 24.18 292.145 21.58C293.575 18.98 295.547 16.9 298.06 15.34C300.573 13.78 303.433 13 306.64 13C309.717 13 312.425 13.715 314.765 15.145C317.105 16.5317 318.86 18.4383 320.03 20.865L316.845 21.905C315.848 20.0417 314.418 18.59 312.555 17.55C310.735 16.4667 308.72 15.925 306.51 15.925C304.04 15.925 301.808 16.5533 299.815 17.81C297.822 19.0667 296.218 20.8 295.005 23.01C293.835 25.1767 293.25 27.625 293.25 30.355C293.25 33.0417 293.857 35.5117 295.07 37.765C296.283 40.0183 297.887 41.8167 299.88 43.16C301.917 44.46 304.148 45.11 306.575 45.11C308.135 45.11 309.652 44.8283 311.125 44.265C312.642 43.6583 313.942 42.8783 315.025 41.925C316.152 40.9717 316.888 39.9533 317.235 38.87L320.42 39.78C319.857 41.3833 318.882 42.8133 317.495 44.07C316.108 45.2833 314.483 46.2583 312.62 46.995C310.8 47.6883 308.828 48.035 306.705 48.035Z"/>
</svg>
