<svg width="512" height="512" viewBox="0 0 512 512" fill="none" xmlns="http://www.w3.org/2000/svg">
<path d="M153.397 343.458C139.098 343.458 126.294 341.111 114.984 336.416C103.887 331.721 94.4969 325.319 86.8144 317.209C79.1318 309.1 73.2632 299.817 69.2085 289.36C66.5577 282.144 64.8215 274.674 64 266.95C78.1028 283.915 107.483 305.784 152.719 305.784C197.075 305.784 227.324 284.758 242.645 267.946C241.736 275.316 239.942 282.455 237.265 289.36C233.21 299.817 227.341 309.1 219.659 317.209C211.976 325.319 202.586 331.721 191.489 336.416C180.392 341.111 167.695 343.458 153.397 343.458Z" fill="#222222"/>
<path d="M242.624 244.484C227.813 227.784 198.195 207.29 152.719 207.29C106.346 207.29 77.6164 228.6 64.0204 245.468C64.8502 237.711 66.5795 230.255 69.2085 223.098C73.2632 212.641 79.1318 203.358 86.8144 195.249C94.4969 187.139 103.887 180.737 114.984 176.042C126.294 171.347 139.098 169 153.397 169C167.695 169 180.392 171.347 191.489 176.042C202.586 180.737 211.976 187.139 219.659 195.249C227.341 203.358 233.21 212.641 237.265 223.098C239.922 229.952 241.709 237.08 242.624 244.484Z" fill="#222222"/>
<path d="M320.211 336.416C331.521 341.111 344.325 343.458 358.624 343.458C372.922 343.458 385.619 341.111 396.716 336.416C407.813 331.721 417.203 325.319 424.886 317.209C432.568 309.1 438.437 299.817 442.491 289.36C445.301 282.114 447.137 274.612 448 266.854C433.009 283.833 402.416 305.784 357.095 305.784C312.883 305.784 283.818 284.895 269.357 268.11C270.225 275.422 271.918 282.506 274.436 289.36C278.49 299.817 284.359 309.1 292.041 317.209C299.724 325.319 309.114 331.721 320.211 336.416Z" fill="#222222"/>
<path d="M357.095 207.29C403.601 207.29 433.522 228.723 447.984 245.613C447.115 237.804 445.284 230.299 442.491 223.098C438.437 212.641 432.568 203.358 424.886 195.249C417.203 187.139 407.813 180.737 396.716 176.042C385.619 171.347 372.922 169 358.624 169C344.325 169 331.521 171.347 320.211 176.042C309.114 180.737 299.724 187.139 292.041 195.249C284.359 203.358 278.49 212.641 274.436 223.098C271.942 229.885 270.258 236.941 269.383 244.268C283.357 227.607 311.816 207.29 357.095 207.29Z" fill="#222222"/>
<path d="M120.746 279.437C117.545 272.821 115.944 265.139 115.944 256.389C115.944 247.64 117.545 239.957 120.746 233.342C124.16 226.726 128.642 221.604 134.19 217.976C139.739 214.349 146.141 212.535 153.397 212.535C160.439 212.535 166.734 214.349 172.283 217.976C178.045 221.604 182.526 226.726 185.727 233.342C188.928 239.957 190.529 247.64 190.529 256.389C190.529 264.925 188.928 272.501 185.727 279.117C182.526 285.732 178.045 290.961 172.283 294.802C166.734 298.43 160.439 300.244 153.397 300.244C146.141 300.244 139.739 298.43 134.19 294.802C128.642 291.174 124.16 286.052 120.746 279.437Z" fill="#222222"/>
<path d="M321.171 256.389C321.171 265.139 322.772 272.821 325.973 279.437C329.387 286.052 333.869 291.174 339.417 294.802C344.966 298.43 351.368 300.244 358.623 300.244C365.666 300.244 371.961 298.43 377.51 294.802C383.272 290.961 387.753 285.732 390.954 279.117C394.155 272.501 395.756 264.925 395.756 256.389C395.756 247.64 394.155 239.957 390.954 233.342C387.753 226.726 383.272 221.604 377.51 217.976C371.961 214.349 365.666 212.535 358.623 212.535C351.368 212.535 344.966 214.349 339.417 217.976C333.869 221.604 329.387 226.726 325.973 233.342C322.772 239.957 321.171 247.64 321.171 256.389Z" fill="#222222"/>
</svg>
