<?xml version="1.0" standalone="no"?>
<!DOCTYPE svg PUBLIC "-//W3C//DTD SVG 20010904//EN"
 "http://www.w3.org/TR/2001/REC-SVG-20010904/DTD/svg10.dtd">
<svg version="1.0" xmlns="http://www.w3.org/2000/svg"
 width="700.000000pt" height="700.000000pt" viewBox="0 0 700.000000 700.000000"
 preserveAspectRatio="xMidYMid meet">
<metadata>
Created by potrace 1.14, written by Peter Selinger 2001-2017
</metadata>
<g transform="translate(0.000000,700.000000) scale(0.100000,-0.100000)"
fill="#000000" stroke="none">
<path d="M1912 4679 c-24 -4 -62 -10 -85 -13 -132 -16 -359 -110 -487 -202
-242 -174 -414 -463 -457 -764 l-6 -45 98 94 c185 176 407 297 670 365 33 8
83 18 110 22 28 3 53 8 56 10 15 9 178 18 304 17 119 -1 263 -16 365 -38 14
-3 38 -8 54 -10 98 -18 360 -128 471 -198 74 -46 204 -149 255 -201 24 -25 47
-46 51 -46 10 0 -25 153 -56 246 -66 198 -214 404 -380 529 -134 100 -326 188
-472 214 -32 6 -69 14 -83 17 -42 9 -362 12 -408 3z"/>
<path d="M4711 4679 c-165 -21 -347 -82 -481 -162 -236 -141 -419 -373 -500
-633 -20 -66 -22 -75 -35 -149 -4 -22 -9 -47 -11 -56 -2 -8 34 21 81 66 237
230 571 379 923 411 531 49 1025 -109 1358 -433 42 -40 77 -73 78 -73 1 0 -5
39 -15 88 -48 240 -153 443 -314 605 -177 178 -398 288 -670 332 -62 10 -342
13 -414 4z"/>
<path d="M2020 4087 c-216 -28 -395 -225 -425 -467 -11 -94 -12 -154 -4 -226
41 -335 291 -541 598 -490 272 45 454 353 409 690 -11 82 -14 94 -33 151 -81
239 -297 375 -545 342z"/>
<path d="M4868 4095 c-2 -2 -25 -6 -51 -9 -208 -28 -375 -214 -416 -462 -10
-61 -8 -232 4 -294 9 -49 53 -157 83 -205 40 -63 137 -151 198 -180 113 -53
259 -63 370 -25 153 53 258 167 322 350 23 66 26 91 26 210 1 74 -2 149 -6
167 -22 111 -84 235 -153 306 -70 73 -204 133 -312 140 -35 2 -64 3 -65 2z"/>
<path d="M873 3345 c3 -5 8 -32 11 -60 4 -27 14 -76 22 -108 109 -423 427
-735 854 -836 201 -47 474 -47 675 1 28 7 52 13 55 13 29 5 132 46 200 80 316
159 531 441 610 801 10 48 18 89 17 91 -1 1 -28 -22 -60 -52 -244 -229 -586
-396 -880 -431 -29 -4 -56 -9 -61 -12 -16 -9 -367 -11 -426 -2 -30 4 -75 11
-100 15 -316 48 -640 215 -859 443 -35 37 -61 63 -58 57z"/>
<path d="M6065 3289 c-201 -206 -522 -374 -830 -434 -22 -5 -47 -10 -55 -11
-53 -12 -105 -15 -260 -19 -96 -2 -204 1 -240 6 -36 5 -83 12 -104 15 -73 10
-231 55 -321 91 -98 38 -284 139 -330 179 -15 13 -31 24 -34 24 -7 0 -66 53
-149 134 -35 33 -61 54 -58 46 3 -8 8 -33 11 -55 10 -74 37 -169 68 -245 164
-401 531 -665 982 -707 125 -12 388 -5 413 11 4 2 27 7 51 11 113 17 289 90
416 174 201 132 373 365 448 606 28 91 51 198 46 214 -3 7 -27 -11 -54 -40z"/>
</g>
</svg>
